<svg xmlns="http://www.w3.org/2000/svg" version="1.1" xmlns:xlink="http://www.w3.org/1999/xlink" xmlns:svgjs="http://svgjs.dev/svgjs" width="1000" height="1000" viewBox="0 0 1000 1000"><rect width="1000" height="1000" fill="#333333"></rect><g transform="matrix(0.7,0,0,0.7,149.57575757575756,405.4276113236609)"><svg viewBox="0 0 396 107" data-background-color="#333333" preserveAspectRatio="xMidYMid meet" height="270" width="1000" xmlns="http://www.w3.org/2000/svg" xmlns:xlink="http://www.w3.org/1999/xlink"><defs></defs><g id="tight-bounds" transform="matrix(1,0,0,1,0.2400000000000091,0.04098194903852459)"><svg viewBox="0 0 395.52 106.91780506138541" height="106.91780506138541" width="395.52"><g><svg viewBox="0 0 395.52 106.91780506138541" height="106.91780506138541" width="395.52"><g><svg viewBox="0 0 532.2973618936935 143.89175155147564" height="106.91780506138541" width="395.52"><g transform="matrix(1,0,0,1,0,2.533549894659373)"><svg viewBox="0 0 395.52 138.8246517621569" height="138.8246517621569" width="395.52"><g><svg viewBox="0 0 395.52 138.8246517621569" height="138.8246517621569" width="395.52"><g><svg viewBox="0 0 395.52 98.91473129610115" height="98.91473129610115" width="395.52"><g transform="matrix(1,0,0,1,0,0)"><svg width="395.52" viewBox="5.699999809265137 -35.29999923706055 142.33999633789062 35.599998474121094" height="98.91473129610115" data-palette-color="#7fc37e"><path d="M33.65 0L29.6 0 21.6-11.25Q20.25-11.1 18.8-11.1L18.8-11.1 9.4-11.1 9.4 0 5.7 0 5.7-35 18.8-35Q25.5-35 29.3-31.8 33.1-28.6 33.1-23L33.1-23Q33.1-18.9 31.03-16.07 28.95-13.25 25.1-12L25.1-12 33.65 0ZM18.7-14.25Q23.9-14.25 26.65-16.55 29.4-18.85 29.4-23L29.4-23Q29.4-27.25 26.65-29.53 23.9-31.8 18.7-31.8L18.7-31.8 9.4-31.8 9.4-14.25 18.7-14.25ZM57.15 0.3Q51.95 0.3 47.72-2.02 43.5-4.35 41.12-8.4 38.75-12.45 38.75-17.5L38.75-17.5Q38.75-22.55 41.12-26.6 43.5-30.65 47.72-32.98 51.95-35.3 57.15-35.3L57.15-35.3Q62.35-35.3 66.52-33 70.7-30.7 73.1-26.63 75.5-22.55 75.5-17.5L75.5-17.5Q75.5-12.45 73.1-8.38 70.7-4.3 66.52-2 62.35 0.3 57.15 0.3L57.15 0.3ZM57.15-3Q61.3-3 64.65-4.88 68-6.75 69.9-10.08 71.8-13.4 71.8-17.5L71.8-17.5Q71.8-21.6 69.9-24.93 68-28.25 64.65-30.13 61.3-32 57.15-32L57.15-32Q53-32 49.62-30.13 46.25-28.25 44.32-24.93 42.4-21.6 42.4-17.5L42.4-17.5Q42.4-13.4 44.32-10.08 46.25-6.75 49.62-4.88 53-3 57.15-3L57.15-3ZM99.09 0.3Q93.89 0.3 89.67-2.02 85.44-4.35 83.07-8.4 80.69-12.45 80.69-17.5L80.69-17.5Q80.69-22.55 83.07-26.6 85.44-30.65 89.67-32.98 93.89-35.3 99.09-35.3L99.09-35.3Q104.3-35.3 108.47-33 112.65-30.7 115.05-26.63 117.44-22.55 117.44-17.5L117.44-17.5Q117.44-12.45 115.05-8.38 112.65-4.3 108.47-2 104.3 0.3 99.09 0.3L99.09 0.3ZM99.09-3Q103.25-3 106.59-4.88 109.94-6.75 111.84-10.08 113.75-13.4 113.75-17.5L113.75-17.5Q113.75-21.6 111.84-24.93 109.94-28.25 106.59-30.13 103.25-32 99.09-32L99.09-32Q94.94-32 91.57-30.13 88.19-28.25 86.27-24.93 84.34-21.6 84.34-17.5L84.34-17.5Q84.34-13.4 86.27-10.08 88.19-6.75 91.57-4.88 94.94-3 99.09-3L99.09-3ZM132.04 0L132.04-31.8 119.74-31.8 119.74-35 148.04-35 148.04-31.8 135.74-31.8 135.74 0 132.04 0Z" opacity="1" transform="matrix(1,0,0,1,0,0)" fill="#7fc37e" class="undefined-text-0" data-fill-palette-color="primary" id="text-0"></path></svg></g></svg></g><g transform="matrix(1,0,0,1,163.310208,122.26612540155952)"><svg viewBox="0 0 232.209792 16.55852636059737" height="16.55852636059737" width="232.209792"><g transform="matrix(1,0,0,1,0,0)"><svg width="232.209792" viewBox="4.050000190734863 -35.29999923706055 505.510009765625 36.04999923706055" height="16.55852636059737" data-palette-color="#7fc37e"><path d="M10.65 0L4.05 0 4.05-34.55 23.6-34.55 22.9-29.65 10.65-29.65 10.65-19.3 21.3-19.3 21.3-14.4 10.65-14.4 10.65 0ZM46.95 0L39.3-13.85 35.1-13.85 35.1 0 28.5 0 28.5-34.55 38.8-34.55Q52.5-34.55 52.5-24.4L52.5-24.4Q52.5-20.95 50.8-18.7 49.1-16.45 45.5-15.05L45.5-15.05 54.55 0 46.95 0ZM35.1-29.75L35.1-18.6 39.2-18.6Q42.35-18.6 43.97-19.98 45.6-21.35 45.6-24.4L45.6-24.4Q45.6-27.2 43.92-28.48 42.25-29.75 38.65-29.75L38.65-29.75 35.1-29.75ZM72.3-35.3Q76.95-35.3 80.34-33.2 83.75-31.1 85.57-27.05 87.4-23 87.4-17.3L87.4-17.3Q87.4-11.65 85.55-7.6 83.7-3.55 80.3-1.4 76.9 0.75 72.3 0.75L72.3 0.75Q67.65 0.75 64.25-1.35 60.85-3.45 59-7.5 57.15-11.55 57.15-17.25L57.15-17.25Q57.15-22.85 59-26.93 60.85-31 64.27-33.15 67.7-35.3 72.3-35.3L72.3-35.3ZM72.3-30.25Q68.3-30.25 66.2-27.13 64.09-24 64.09-17.25L64.09-17.25Q64.09-4.3 72.3-4.3L72.3-4.3Q76.3-4.3 78.37-7.4 80.45-10.5 80.45-17.3L80.45-17.3Q80.45-24.05 78.37-27.15 76.3-30.25 72.3-30.25L72.3-30.25ZM123.64-34.55L126.34 0 119.89 0 118.99-14.45Q118.54-22.2 118.54-26.75L118.54-26.75 118.54-28.55 112.24-3.75 105.99-3.75 99.29-28.6Q99.39-25.3 99.39-23.6L99.39-23.6Q99.39-19.05 99.09-14.25L99.09-14.25 98.24 0 91.84 0 94.59-34.55 103.09-34.55 109.24-10.35 115.04-34.55 123.64-34.55ZM141.74-34.55L167.39-34.55 166.69-29.3 157.69-29.3 157.69 0 151.04 0 151.04-29.3 141.74-29.3 141.74-34.55ZM197.24 0L190.59 0 190.59-15.45 178.29-15.45 178.29 0 171.69 0 171.69-34.55 178.29-34.55 178.29-20.7 190.59-20.7 190.59-34.55 197.24-34.55 197.24 0ZM205.28-34.55L225.33-34.55 224.63-29.65 211.88-29.65 211.88-20 222.98-20 222.98-15.1 211.88-15.1 211.88-4.95 225.53-4.95 225.53 0 205.28 0 205.28-34.55ZM258.23-35.3Q261.63-35.3 264.25-34.27 266.88-33.25 269.23-31.25L269.23-31.25 265.68-27.55Q263.83-29 262.2-29.65 260.58-30.3 258.43-30.3L258.43-30.3Q254.43-30.3 251.88-27.1 249.33-23.9 249.33-17.3L249.33-17.3Q249.33-10.4 251.35-7.35 253.38-4.3 257.53-4.3L257.53-4.3Q260.68-4.3 263.03-5.65L263.03-5.65 263.03-14.65 257.83-14.65 257.13-19.55 269.53-19.55 269.53-2.65Q263.93 0.75 257.63 0.75L257.63 0.75Q250.23 0.75 246.3-3.85 242.38-8.45 242.38-17.3L242.38-17.3Q242.38-22.95 244.5-27.03 246.63-31.1 250.23-33.2 253.83-35.3 258.23-35.3L258.23-35.3ZM294.63 0L286.98-13.85 282.77-13.85 282.77 0 276.18 0 276.18-34.55 286.48-34.55Q300.18-34.55 300.18-24.4L300.18-24.4Q300.18-20.95 298.48-18.7 296.77-16.45 293.18-15.05L293.18-15.05 302.23 0 294.63 0ZM282.77-29.75L282.77-18.6 286.88-18.6Q290.02-18.6 291.65-19.98 293.27-21.35 293.27-24.4L293.27-24.4Q293.27-27.2 291.6-28.48 289.93-29.75 286.32-29.75L286.32-29.75 282.77-29.75ZM319.97-35.3Q324.62-35.3 328.02-33.2 331.42-31.1 333.25-27.05 335.07-23 335.07-17.3L335.07-17.3Q335.07-11.65 333.22-7.6 331.37-3.55 327.97-1.4 324.57 0.75 319.97 0.75L319.97 0.75Q315.32 0.75 311.92-1.35 308.52-3.45 306.67-7.5 304.82-11.55 304.82-17.25L304.82-17.25Q304.82-22.85 306.67-26.93 308.52-31 311.95-33.15 315.37-35.3 319.97-35.3L319.97-35.3ZM319.97-30.25Q315.97-30.25 313.87-27.13 311.77-24 311.77-17.25L311.77-17.25Q311.77-4.3 319.97-4.3L319.97-4.3Q323.97-4.3 326.05-7.4 328.12-10.5 328.12-17.3L328.12-17.3Q328.12-24.05 326.05-27.15 323.97-30.25 319.97-30.25L319.97-30.25ZM366.47-34.55L366.47-11.3Q366.47-7.8 365-5.08 363.52-2.35 360.6-0.8 357.67 0.75 353.57 0.75L353.57 0.75Q347.37 0.75 344.07-2.53 340.77-5.8 340.77-11.3L340.77-11.3 340.77-34.55 347.37-34.55 347.37-11.65Q347.37-8 348.9-6.2 350.42-4.4 353.57-4.4L353.57-4.4Q356.77-4.4 358.3-6.2 359.82-8 359.82-11.65L359.82-11.65 359.82-34.55 366.47-34.55ZM399.57-34.55L399.57 0 391.02 0 379.17-27.95Q379.62-24.25 379.84-21.25 380.07-18.25 380.07-14.1L380.07-14.1 380.07 0 374.07 0 374.07-34.55 382.42-34.55 394.47-6.55Q394.17-8.55 393.87-11.83 393.57-15.1 393.57-18.35L393.57-18.35 393.57-34.55 399.57-34.55ZM416.17-34.55Q424.22-34.55 429.04-30.9 433.87-27.25 433.87-17.45L433.87-17.45Q433.87-7.85 429.12-3.93 424.37 0 417.07 0L417.07 0 407.67 0 407.67-34.55 416.17-34.55ZM417.32-29.6L414.27-29.6 414.27-4.95 417.52-4.95Q421.92-4.95 424.42-7.68 426.92-10.4 426.92-17.45L426.92-17.45Q426.92-22.35 425.64-25.03 424.37-27.7 422.29-28.65 420.22-29.6 417.32-29.6L417.32-29.6ZM477.76-34.55L477.76-11.3Q477.76-7.8 476.29-5.08 474.81-2.35 471.89-0.8 468.96 0.75 464.86 0.75L464.86 0.75Q458.66 0.75 455.36-2.53 452.06-5.8 452.06-11.3L452.06-11.3 452.06-34.55 458.66-34.55 458.66-11.65Q458.66-8 460.19-6.2 461.71-4.4 464.86-4.4L464.86-4.4Q468.06-4.4 469.59-6.2 471.11-8 471.11-11.65L471.11-11.65 471.11-34.55 477.76-34.55ZM495.56-34.55Q502.21-34.55 505.88-31.8 509.56-29.05 509.56-23.55L509.56-23.55Q509.56-17.8 505.86-14.93 502.16-12.05 496.01-12.05L496.01-12.05 491.96-12.05 491.96 0 485.36 0 485.36-34.55 495.56-34.55ZM495.51-17Q499.06-17 500.86-18.48 502.66-19.95 502.66-23.55L502.66-23.55Q502.66-29.7 495.51-29.7L495.51-29.7 491.96-29.7 491.96-17 495.51-17Z" opacity="1" transform="matrix(1,0,0,1,0,0)" fill="#7fc37e" class="undefined-text-1" data-fill-palette-color="secondary" id="text-1"></path></svg></g></svg></g></svg></g></svg></g><g transform="matrix(1,0,0,1,418.87139410545836,0)"><svg viewBox="0 0 113.42596778823521 143.89175155147564" height="143.89175155147564" width="113.42596778823521"><g><svg xmlns:rdf="http://www.w3.org/1999/02/22-rdf-syntax-ns#" xmlns="http://www.w3.org/2000/svg" xmlns:cc="http://creativecommons.org/ns#" xmlns:dc="http://purl.org/dc/elements/1.1/" version="1.1" viewBox="14.531000137329102 4.968799591064453 70.96900177001953 90.031005859375" x="0" y="0" height="143.89175155147564" width="113.42596778823521" class="icon-icon-0" data-fill-palette-color="accent" id="icon-0"><path fill="#fefee2" d="M27.5 4.969c-7.132 0-12.969 5.93-12.969 13.062 0 5.736 3.777 10.611 8.969 12.313v39.281c-5.192 1.716-8.969 6.67-8.969 12.406 0 7.133 5.837 12.969 12.969 12.969s13-5.836 13-12.969c0-5.736-3.808-10.69-9-12.406v-0.625c0-5.929 1.815-8.24 5.156-10.344 3.341-2.103 8.602-3.393 14.282-4.781 5.679-1.388 11.839-2.905 16.937-6.719 4.632-3.465 7.961-9.08 8.531-16.781 5.24-1.673 9.094-6.573 9.094-12.344 0-7.132-5.868-13.062-13-13.062s-12.969 5.93-12.969 13.062c0 5.701 3.732 10.551 8.875 12.281-0.422 5.483-2.394 8.262-5.344 10.469-3.339 2.499-8.429 3.982-14 5.344-5.57 1.362-11.559 2.572-16.656 5.781-0.306 0.193-0.61 0.382-0.906 0.594v-22.156c5.192-1.702 9-6.577 9-12.313 0-7.132-5.868-13.062-13-13.062z m0 8.031c2.809 0 5.031 2.222 5.031 5.031s-2.222 4.938-5.031 4.938-5-2.129-5-4.938 2.191-5.031 5-5.031z m45 0c2.809 0 5.031 2.222 5.031 5.031s-2.222 4.938-5.031 4.938-5-2.129-5-4.938 2.191-5.031 5-5.031z m-45 64c2.809 0 5.031 2.222 5.031 5.031s-2.222 4.938-5.031 4.938-5-2.129-5-4.938 2.191-5.031 5-5.031z" baseline-shift="baseline" block-progression="tb" color="#fefee2" direction="ltr" text-indent="0" enable-background="accumulate" text-transform="none" data-fill-palette-color="accent"></path></svg></g></svg></g></svg></g></svg></g></svg><rect width="395.52" height="106.91780506138541" fill="none" stroke="none" visibility="hidden"></rect></g></svg></g></svg>